<svg xmlns="http://www.w3.org/2000/svg" xmlns:xlink="http://www.w3.org/1999/xlink"
    xmlns:sketch="http://www.bohemiancoding.com/sketch/ns" viewBox="0 0 51 50" version="1.1" x="0px" y="0px">
    <title>icon-menu</title>
    <desc>Created with Sketch.</desc>
    <g stroke="none" stroke-width="1" fill="none" fill-rule="evenodd" sketch:type="MSPage">
        <g sketch:type="MSArtboardGroup" transform="translate(-529.000000, -88.000000)" fill="#ffffff">
            <g sketch:type="MSLayerGroup" transform="translate(60.000000, 80.000000)">
                <path
                    d="M485.469099,13.4545455 L516.721245,13.4545455 C518.20068,13.4545455 519.4,12.2335039 519.4,10.7272727 C519.4,9.22104159 518.20068,8 516.721245,8 L485.469099,8 C483.989664,8 482.790344,9.22104159 482.790344,10.7272727 C482.790344,12.2335039 483.989664,13.4545455 485.469099,13.4545455 Z M472.078755,30.7272727 L516.721245,30.7272727 C518.20068,30.7272727 519.4,29.5062311 519.4,28 C519.4,26.4937689 518.20068,25.2727273 516.721245,25.2727273 L472.078755,25.2727273 C470.59932,25.2727273 469.4,26.4937689 469.4,28 C469.4,29.5062311 470.59932,30.7272727 472.078755,30.7272727 Z M485.469099,48 L516.721245,48 C518.20068,48 519.4,46.7789584 519.4,45.2727273 C519.4,43.7664961 518.20068,42.5454545 516.721245,42.5454545 L485.469099,42.5454545 C483.989664,42.5454545 482.790344,43.7664961 482.790344,45.2727273 C482.790344,46.7789584 483.989664,48 485.469099,48 Z"
                    sketch:type="MSShapeGroup" />
            </g>
        </g>
    </g><text x="0" y="55" fill="#ffffff" font-size="5px" font-weight="bold"
        font-family="'Helvetica Neue', Helvetica, Arial-Unicode, Arial, Sans-serif">Created by Alexis Doreau</text><text
        x="0" y="60" fill="#ffffff" font-size="5px" font-weight="bold"
        font-family="'Helvetica Neue', Helvetica, Arial-Unicode, Arial, Sans-serif">from the Noun Project</text>
</svg>